<svg width="40" height="40" viewBox="0 0 40 40" fill="none" xmlns="http://www.w3.org/2000/svg">
<rect x="32" y="21.3334" width="2.66667" height="8" rx="1.33333" transform="rotate(-90 32 21.3334)" fill="#FFC700"/>
<rect x="18.6667" y="32" width="2.66667" height="8" rx="1.33333" fill="#FFC700"/>
<rect width="2.66667" height="8" rx="1.33333" transform="matrix(1 0 0 -1 18.6667 8)" fill="#FFC700"/>
<rect width="2.66667" height="8" rx="1.33333" transform="matrix(0 -1 -1 0 8 21.3334)" fill="#FFC700"/>
<rect x="5.33328" y="8.55225" width="2.66667" height="8" rx="1.33333" transform="rotate(-45 5.33328 8.55225)" fill="#FFC700"/>
<rect x="26.6667" y="28.5522" width="2.66667" height="8" rx="1.33333" transform="rotate(-45 26.6667 28.5522)" fill="#FFC700"/>
<rect x="29.5898" y="13.6292" width="2.66667" height="8" rx="1.33333" transform="rotate(-135 29.5898 13.6292)" fill="#FFC700"/>
<rect x="25.1303" y="12.4115" width="2.66667" height="8" rx="1.33333" transform="rotate(-157.5 25.1303 12.4115)" fill="#FFC700"/>
<rect x="14.4636" y="36.4115" width="2.66667" height="8" rx="1.33333" transform="rotate(-157.5 14.4636 36.4115)" fill="#FFC700"/>
<rect width="2.66667" height="8" rx="1.33333" transform="matrix(0.92388 -0.382683 -0.382683 -0.92388 25.7281 36.4115)" fill="#FFC700"/>
<rect width="2.66667" height="8" rx="1.33333" transform="matrix(0.382683 -0.92388 -0.92388 -0.382683 11.3914 18.8585)" fill="#FFC700"/>
<rect width="2.66667" height="8" rx="1.33333" transform="matrix(0.382683 -0.92388 -0.92388 -0.382683 35.3914 28.1918)" fill="#FFC700"/>
<rect x="29.0209" y="18.8585" width="2.66667" height="8" rx="1.33333" transform="rotate(-112.5 29.0209 18.8585)" fill="#FFC700"/>
<rect x="5.02094" y="28.1918" width="2.66667" height="8" rx="1.33333" transform="rotate(-112.5 5.02094 28.1918)" fill="#FFC700"/>
<rect width="2.66667" height="8" rx="1.33333" transform="matrix(0.92388 -0.382683 -0.382683 -0.92388 15.0615 12.4115)" fill="#FFC700"/>
<rect x="7.21945" y="34.2091" width="2.66667" height="8" rx="1.33333" transform="rotate(-135 7.21945 34.2091)" fill="#FFC700"/>
<circle cx="20.0002" cy="19.9999" r="13.3333" transform="rotate(-90 20.0002 19.9999)" fill="#FFEC40"/>
<path fill-rule="evenodd" clip-rule="evenodd" d="M23.5345 22.6667C22.5935 23.736 21.3559 24.3852 20.0001 24.3852C18.6443 24.3852 17.4067 23.736 16.4657 22.6666C17.1477 25.0497 18.4747 26.6666 20.0001 26.6666C21.5254 26.6666 22.8524 25.0497 23.5345 22.6667Z" fill="#121212"/>
<circle r="2" transform="matrix(-1 0 0 1 24.6667 18)" fill="black"/>
<circle r="2" transform="matrix(-1 0 0 1 15.3333 18)" fill="black"/>
</svg>
